<?xml version="1.0" encoding="UTF-8" standalone="no"?>
<!DOCTYPE svg PUBLIC "-//W3C//DTD SVG 20010904//EN"
"http://www.w3.org/TR/2001/REC-SVG-20010904/DTD/svg10.dtd">
<!-- Created with Sodipodi ("http://www.sodipodi.com/") -->
<svg
   width="48pt"
   height="48pt"
   viewBox="0 0 256 256"
   overflow="visible"
   enable-background="new 0 0 256 256"
   xml:space="preserve"
   id="svg153"
   sodipodi:version="0.32pre"
   sodipodi:docname="/home/cschalle/gnome-themes-extras/Nuvola/icons/scalable/stock/down.svg"
   sodipodi:docbase="/home/cschalle/gnome-themes-extras/Nuvola/icons/scalable/stock/"
   xmlns="http://www.w3.org/2000/svg"
   xmlns:sodipodi="http://sodipodi.sourceforge.net/DTD/sodipodi-0.dtd"
   xmlns:xml="http://www.w3.org/XML/1998/namespace"
   xmlns:a="http://ns.adobe.com/AdobeSVGViewerExtensions/3.0/"
   xmlns:xlink="http://www.w3.org/1999/xlink">
  <defs
     id="defs220">
    <linearGradient
       id="XMLID_4_"
       gradientUnits="userSpaceOnUse"
       x1="-26.6519"
       y1="390.4961"
       x2="-26.6519"
       y2="327.4942"
       gradientTransform="matrix(1 0 0 -1 168.5 547.5)">
      <stop
         offset="0.0056"
         style="stop-color:#FFFFFF"
         id="stop206" />
      <stop
         offset="1"
         style="stop-color:#CCCCCC"
         id="stop207" />
      <a:midPointStop
         offset="0.0056"
         style="stop-color:#FFFFFF"
         id="midPointStop208" />
      <a:midPointStop
         offset="0.5"
         style="stop-color:#FFFFFF"
         id="midPointStop209" />
      <a:midPointStop
         offset="1"
         style="stop-color:#CCCCCC"
         id="midPointStop210" />
    </linearGradient>
    <linearGradient
       id="XMLID_5_"
       gradientUnits="userSpaceOnUse"
       x1="-41.8311"
       y1="533.502"
       x2="-41.8312"
       y2="444.5352"
       gradientTransform="matrix(1 0 0 -1 168.5 547.5)">
      <stop
         offset="0.0056"
         style="stop-color:#FFFFFF"
         id="stop213" />
      <stop
         offset="1"
         style="stop-color:#99CCFF"
         id="stop214" />
      <a:midPointStop
         offset="0.0056"
         style="stop-color:#FFFFFF"
         id="midPointStop215" />
      <a:midPointStop
         offset="0.5"
         style="stop-color:#FFFFFF"
         id="midPointStop216" />
      <a:midPointStop
         offset="1"
         style="stop-color:#99CCFF"
         id="midPointStop217" />
    </linearGradient>
  </defs>
  <sodipodi:namedview
     id="base" />
  <g
     id="Layer_1_1_"
     style="font-size:12;stroke:#000000;">
    <path
       fill="none"
       stroke="none"
       d="M256,256H0V0h256V256z"
       id="path156" />
  </g>
  <g
     id="g157"
     style="font-size:12;stroke:#000000;">
    <path
       opacity="0.2"
       stroke="none"
       d="M8.285,130.645C8.285,198.111,63.174,253,130.643,253C198.109,253,253,198.111,253,130.645     c0-67.47-54.891-122.358-122.357-122.358C63.174,8.286,8.285,63.175,8.285,130.645z"
       id="path158" />
    <path
       fill="#003366"
       stroke="none"
       d="M5.603,125.798c0,67.468,54.889,122.356,122.357,122.356s122.356-54.889,122.356-122.356     c0-67.469-54.89-122.358-122.356-122.358C60.492,3.44,5.603,58.33,5.603,125.798z"
       id="path159" />
    <path
       fill="#003366"
       stroke="none"
       d="M127.96,5.44C61.595,5.44,7.603,59.433,7.603,125.798     c0,66.364,53.992,120.356,120.357,120.356c66.365,0,120.356-53.992,120.356-120.356C248.316,59.433,194.325,5.44,127.96,5.44z"
       id="path160" />
    <radialGradient
       id="XMLID_1_"
       cx="-118.7607"
       cy="492.4902"
       r="259.5079"
       fx="-118.7607"
       fy="492.4902"
       gradientTransform="matrix(1 0 0 -1 168.5 547.5)"
       gradientUnits="userSpaceOnUse">
      <stop
         offset="0.0056"
         style="stop-color:#99CCFF"
         id="stop162" />
      <stop
         offset="0.5843"
         style="stop-color:#3399FF"
         id="stop163" />
      <stop
         offset="1"
         style="stop-color:#0066CC"
         id="stop164" />
      <a:midPointStop
         offset="0.0056"
         style="stop-color:#99CCFF"
         id="midPointStop165" />
      <a:midPointStop
         offset="0.5"
         style="stop-color:#99CCFF"
         id="midPointStop166" />
      <a:midPointStop
         offset="0.5843"
         style="stop-color:#3399FF"
         id="midPointStop167" />
      <a:midPointStop
         offset="0.5"
         style="stop-color:#3399FF"
         id="midPointStop168" />
      <a:midPointStop
         offset="1"
         style="stop-color:#0066CC"
         id="midPointStop169" />
    </radialGradient>
    <path
       fill="url(#XMLID_1_)"
       stroke="none"
       d="M13.603,125.798c0,63.157,51.199,114.356,114.357,114.356     s114.356-51.199,114.356-114.356c0-63.158-51.198-114.358-114.356-114.358C64.802,11.44,13.603,62.64,13.603,125.798z"
       id="path170" />
    <path
       opacity="0.5"
       fill="#FFFFFF"
       stroke="none"
       d="M16.603,129.813c0-63.157,51.199-114.357,114.357-114.357     c36.628,0,69.229,17.222,90.16,44.007c-20.735-29.068-54.733-48.022-93.16-48.022c-63.158,0-114.357,51.2-114.357,114.358     c0,26.53,9.037,50.946,24.196,70.349C24.454,177.439,16.603,154.543,16.603,129.813z"
       id="path171" />
  </g>
  <path
     fill="#0066CC"
     stroke="none"
     d="M201.042,89.284c-4.437-1.539-9.678-0.156-13.354,3.52c0,0-23.371,23.37-28.987,28.987    c-6.234-6.234-54.379-54.379-54.379-54.379c-5.946-5.947-16.337-5.236-23.16,1.587c-6.823,6.824-7.535,17.215-1.589,23.161    c0,0,48.145,48.146,54.379,54.38c-5.617,5.617-28.987,28.987-28.987,28.987c-3.677,3.677-5.059,8.919-3.519,13.354    c1.689,4.886,6.434,7.718,11.804,7.04l73.449-9.277c6.129-0.774,11.335-5.979,12.106-12.109l9.276-73.442    C208.762,95.727,205.934,90.98,201.042,89.284z"
     id="path204"
     style="font-size:12;fill:#0066cc;" />
  <path
     fill="url(#XMLID_4_)"
     stroke="none"
     d="M193.846,173.91l9.276-73.444c0.381-3.007-1.08-5.543-3.718-6.458    c-2.639-0.915-5.85,0-8.182,2.332L158.7,128.861l-57.915-57.913c-3.998-3.999-11.215-3.287-16.089,1.587    c-4.875,4.874-5.587,12.093-1.589,16.09l57.915,57.915l-32.523,32.522c-2.33,2.33-3.245,5.543-2.329,8.182    c0.911,2.636,3.444,4.097,6.454,3.718l73.447-9.278C189.941,181.195,193.357,177.781,193.846,173.91z"
     id="path211"
     style="font-size:12;fill:url(#XMLID_4_);" />
  <path
     fill="url(#XMLID_5_)"
     stroke="none"
     d="M81.161,68.999c6.823-6.823,17.214-7.534,23.16-1.587c0,0,10.05,10.05,21.56,21.56    c37.824-0.522,71.268-8.649,92.631-21.005c-18.02-31.361-51.859-52.527-90.552-52.527c-40.628,0-75.903,23.339-93.134,57.313    c11.499,5.232,25.445,9.418,41.009,12.236C74.805,79.651,76.622,73.538,81.161,68.999z"
     id="path218"
     style="font-size:12;fill:url(#XMLID_5_);" />
</svg>
