<?xml version="1.0" encoding="UTF-8" standalone="no"?>
<!DOCTYPE svg PUBLIC "-//W3C//DTD SVG 20010904//EN"
"http://www.w3.org/TR/2001/REC-SVG-20010904/DTD/svg10.dtd">
<!-- Created with Sodipodi ("http://www.sodipodi.com/") -->
<svg
   width="48pt"
   height="48pt"
   viewBox="0 0 256 256"
   overflow="visible"
   enable-background="new 0 0 256 256"
   xml:space="preserve"
   xmlns="http://www.w3.org/2000/svg"
   xmlns:xml="http://www.w3.org/XML/1998/namespace"
   xmlns:a="http://ns.adobe.com/AdobeSVGViewerExtensions/3.0/"
   xmlns:sodipodi="http://sodipodi.sourceforge.net/DTD/sodipodi-0.dtd"
   xmlns:xlink="http://www.w3.org/1999/xlink"
   id="svg153"
   sodipodi:version="0.32pre"
   sodipodi:docname="/home/cschalle/gnome-themes-extras/Nuvola/icons/scalable/stock/editcopy.svg"
   sodipodi:docbase="/home/cschalle/gnome-themes-extras/Nuvola/icons/scalable/stock">
  <defs
     id="defs180" />
  <sodipodi:namedview
     id="base" />
  <g
     id="Layer_2"
     stroke="#000000">
    <path
       fill="none"
       stroke="none"
       d="M256,256H0V0h256V256z"
       id="path155" />
  </g>
  <g
     id="Layer_1"
     stroke="#000000">
    <path
       opacity="0.2"
       stroke="none"
       d="M74.27,20.575c-8.39,0-15.215,6.825-15.215,15.215v178.995    c0,8.39,6.825,15.215,15.215,15.215h157.516c8.39,0,15.215-6.825,15.215-15.215V35.79c0-8.39-6.825-15.215-15.215-15.215H74.27z"
       id="path157" />
    <path
       fill="#003366"
       stroke="none"
       d="M66.215,15.206C57.825,15.206,51,22.031,51,30.42v178.996    c0,8.389,6.825,15.214,15.215,15.214H223.73c8.39,0,15.215-6.825,15.215-15.214V30.42c0-8.389-6.825-15.214-15.215-15.214H66.215z    "
       id="path158" />
    <path
       fill="#3399FF"
       stroke="none"
       d="M55.475,209.416c0,5.931,4.809,10.739,10.74,10.739H223.73    c5.931,0,10.74-4.809,10.74-10.739V30.42c0-5.931-4.81-10.74-10.74-10.74H66.215c-5.931,0-10.74,4.809-10.74,10.74V209.416z"
       id="path159" />
    <linearGradient
       id="XMLID_1_"
       gradientUnits="userSpaceOnUse"
       x1="106.0439"
       y1="80.9893"
       x2="318.152"
       y2="293.0973">
      <stop
         offset="0"
         style="stop-color:#FFFFFF"
         id="stop161" />
      <stop
         offset="1"
         style="stop-color:#99CCFF"
         id="stop162" />
      <a:midPointStop
         offset="0"
         style="stop-color:#FFFFFF"
         id="midPointStop163" />
      <a:midPointStop
         offset="0.5"
         style="stop-color:#FFFFFF"
         id="midPointStop164" />
      <a:midPointStop
         offset="1"
         style="stop-color:#99CCFF"
         id="midPointStop165" />
    </linearGradient>
    <path
       fill="url(#XMLID_1_)"
       stroke="none"
       d="M66.215,24.155c-3.454,0-6.265,2.811-6.265,6.265v178.996    c0,3.453,2.811,6.265,6.265,6.265H223.73c3.454,0,6.265-2.812,6.265-6.265V30.42c0-3.454-2.811-6.265-6.265-6.265H66.215z"
       id="path166" />
    <path
       opacity="0.4"
       fill="#FFFFFF"
       stroke="none"
       d="M176.297,100.229c16.64-15.601,36.639-23.275,58.174-27.087V30.42    c0-5.931-4.81-10.74-10.74-10.74H66.215c-5.931,0-10.74,4.809-10.74,10.74v128.222C99.85,161.989,141.82,131.113,176.297,100.229z    "
       id="path167" />
    <path
       opacity="0.2"
       stroke="none"
       d="M27.046,86.958c-6.506,0-11.799,5.293-11.799,11.799V237.57c0,6.507,5.293,11.8,11.799,11.8    H149.2c6.507,0,11.8-5.293,11.8-11.8V98.758c0-6.506-5.293-11.799-11.8-11.799H27.046z"
       id="path168" />
    <path
       fill="#003366"
       stroke="none"
       d="M20.799,82.794C14.293,82.794,9,88.088,9,94.593v138.814    c0,6.505,5.293,11.798,11.799,11.798h122.155c6.507,0,11.799-5.293,11.799-11.798V94.593c0-6.505-5.292-11.799-11.799-11.799    H20.799z"
       id="path169" />
    <path
       fill="#3399FF"
       stroke="none"
       d="M12.47,233.407c0,4.599,3.729,8.328,8.329,8.328h122.155c4.6,0,8.329-3.729,8.329-8.328    V94.593c0-4.6-3.729-8.329-8.329-8.329H20.799c-4.6,0-8.329,3.729-8.329,8.329V233.407z"
       id="path170" />
    <linearGradient
       id="XMLID_2_"
       gradientUnits="userSpaceOnUse"
       x1="51.687"
       y1="133.8105"
       x2="216.1798"
       y2="298.3033">
      <stop
         offset="0"
         style="stop-color:#FFFFFF"
         id="stop172" />
      <stop
         offset="1"
         style="stop-color:#99CCFF"
         id="stop173" />
      <a:midPointStop
         offset="0"
         style="stop-color:#FFFFFF"
         id="midPointStop174" />
      <a:midPointStop
         offset="0.5"
         style="stop-color:#FFFFFF"
         id="midPointStop175" />
      <a:midPointStop
         offset="1"
         style="stop-color:#99CCFF"
         id="midPointStop176" />
    </linearGradient>
    <path
       fill="url(#XMLID_2_)"
       stroke="none"
       d="M20.799,89.735c-2.679,0-4.859,2.18-4.859,4.858v138.814    c0,2.677,2.18,4.858,4.859,4.858h122.155c2.679,0,4.858-2.182,4.858-4.858V94.593c0-2.679-2.18-4.858-4.858-4.858H20.799z"
       id="path177" />
    <path
       opacity="0.4"
       fill="#FFFFFF"
       stroke="none"
       d="M106.169,148.731c12.904-12.1,28.413-18.051,45.114-21.007V94.593    c0-4.6-3.729-8.329-8.329-8.329H20.799c-4.6,0-8.329,3.729-8.329,8.329v99.438C46.883,196.627,79.432,172.682,106.169,148.731z"
       id="path178" />
  </g>
</svg>
