<?xml version="1.0" encoding="UTF-8" standalone="no"?>
<!DOCTYPE svg PUBLIC "-//W3C//DTD SVG 20010904//EN"
"http://www.w3.org/TR/2001/REC-SVG-20010904/DTD/svg10.dtd">
<!-- Created with Sodipodi ("http://www.sodipodi.com/") -->
<svg
   width="48pt"
   height="48pt"
   viewBox="0 0 256 256"
   overflow="visible"
   enable-background="new 0 0 256 256"
   xml:space="preserve"
   xmlns="http://www.w3.org/2000/svg"
   xmlns:xml="http://www.w3.org/XML/1998/namespace"
   xmlns:a="http://ns.adobe.com/AdobeSVGViewerExtensions/3.0/"
   xmlns:sodipodi="http://sodipodi.sourceforge.net/DTD/sodipodi-0.dtd"
   xmlns:xlink="http://www.w3.org/1999/xlink"
   id="svg153"
   sodipodi:version="0.32pre"
   sodipodi:docname="/home/cschalle/gnome-themes-extras/Nuvola/icons/scalable/stock/editdelete.svg"
   sodipodi:docbase="/home/cschalle/gnome-themes-extras/Nuvola/icons/scalable/stock">
  <defs
     id="defs172" />
  <sodipodi:namedview
     id="base" />
  <g
     id="Layer_2"
     stroke="#000000">
    <path
       fill="none"
       stroke="none"
       d="M256,256H0V0h256V256z"
       id="path155" />
  </g>
  <g
     id="Layer_1"
     stroke="#000000">
    <path
       opacity="0.2"
       stroke="none"
       d="M50.867,22.925c-8.937,0-16.207,7.27-16.207,16.207v190.661    c0,8.937,7.27,16.207,16.207,16.207h167.783c8.937,0,16.206-7.271,16.206-16.207V39.132c0-8.937-7.27-16.207-16.206-16.207H50.867    z"
       id="path157" />
    <path
       fill="#003366"
       stroke="none"
       d="M43.97,16.206c-8.937,0-16.207,7.27-16.207,16.206v190.663    c0,8.936,7.27,16.206,16.207,16.206h167.783c8.936,0,16.206-7.271,16.206-16.206V32.412c0-8.936-7.271-16.206-16.206-16.206H43.97    z"
       id="path158" />
    <path
       fill="#3399FF"
       stroke="none"
       d="M32.53,223.074c0,6.317,5.122,11.439,11.44,11.439h167.783    c6.316,0,11.439-5.122,11.439-11.439V32.412c0-6.318-5.123-11.44-11.439-11.44H43.97c-6.318,0-11.44,5.122-11.44,11.44V223.074z"
       id="path159" />
    <linearGradient
       id="XMLID_1_"
       gradientUnits="userSpaceOnUse"
       x1="86.395"
       y1="86.2764"
       x2="312.3286"
       y2="312.2099">
      <stop
         offset="0"
         style="stop-color:#FFFFFF"
         id="stop161" />
      <stop
         offset="1"
         style="stop-color:#99CCFF"
         id="stop162" />
      <a:midPointStop
         offset="0"
         style="stop-color:#FFFFFF"
         id="midPointStop163" />
      <a:midPointStop
         offset="0.5"
         style="stop-color:#FFFFFF"
         id="midPointStop164" />
      <a:midPointStop
         offset="1"
         style="stop-color:#99CCFF"
         id="midPointStop165" />
    </linearGradient>
    <path
       fill="url(#XMLID_1_)"
       stroke="none"
       d="M43.97,25.739c-3.679,0-6.673,2.994-6.673,6.673v190.663    c0,3.679,2.994,6.673,6.673,6.673h167.783c3.679,0,6.673-2.994,6.673-6.673V32.412c0-3.679-2.994-6.673-6.673-6.673H43.97z"
       id="path166" />
    <g
       id="g167">
      <path
         fill="#990000"
         stroke="none"
         d="M159.495,71.174C159.495,71.174,159.495,71.174,159.495,71.174     c0.001,0-25.619,25.619-31.634,31.634c-6.015-6.015-31.634-31.635-31.634-31.635c-4.153-4.152-10.911-4.152-15.064,0     L65.346,86.991c-2.012,2.013-3.12,4.688-3.12,7.532c0,2.845,1.108,5.519,3.119,7.531c0,0,25.62,25.621,31.635,31.636     c-6.015,6.014-31.634,31.635-31.634,31.635c-2.011,2.01-3.12,4.685-3.12,7.53c0,2.847,1.108,5.521,3.121,7.532l15.816,15.816     c2.01,2.013,4.685,3.121,7.532,3.121c2.846,0,5.521-1.108,7.533-3.122c0,0,22.525-22.524,31.633-31.632     c6.015,6.015,31.635,31.633,31.635,31.633c2.011,2.013,4.686,3.121,7.531,3.121s5.521-1.108,7.532-3.122l15.816-15.816     c2.012-2.009,3.121-4.684,3.121-7.531c0-2.847-1.109-5.522-3.122-7.533c0,0-25.617-25.618-31.632-31.632     c6.015-6.015,31.633-31.635,31.633-31.635c2.012-2.011,3.121-4.686,3.121-7.532c0-2.846-1.109-5.521-3.122-7.533l-15.816-15.816     c-2.011-2.012-4.687-3.12-7.531-3.12S161.507,69.162,159.495,71.174z"
         id="path168" />
      <path
         fill="#FF0000"
         stroke="none"
         d="M151.211,133.689c6.153-6.153,35.399-35.4,35.399-35.4c1-1,1.561-2.354,1.561-3.767     c0-1.412-0.561-2.767-1.561-3.766l-15.817-15.817c-2.079-2.08-5.452-2.08-7.531,0c0,0-29.247,29.248-35.4,35.4     c-6.153-6.153-35.4-35.4-35.4-35.4c-2.08-2.08-5.453-2.079-7.532,0L69.112,90.757c-1.04,1.04-1.56,2.403-1.56,3.766     c0,1.363,0.52,2.726,1.56,3.767c0,0,29.247,29.247,35.4,35.4c-6.153,6.152-35.4,35.4-35.4,35.4     c-1.04,1.039-1.56,2.402-1.56,3.765c0,1.363,0.52,2.727,1.56,3.766l15.817,15.818c0.999,0.999,2.354,1.56,3.766,1.56     s2.767-0.561,3.766-1.56c0,0,29.247-29.247,35.4-35.4c6.153,6.153,35.4,35.4,35.4,35.4c2.079,2.08,5.452,2.08,7.531,0     l15.817-15.818c1.04-1.039,1.561-2.402,1.561-3.766c0-1.362-0.521-2.726-1.561-3.765     C186.61,169.09,157.364,139.842,151.211,133.689z"
         id="path169" />
    </g>
    <path
       opacity="0.4"
       fill="#FFFFFF"
       stroke="none"
       d="M161.228,106.77c17.724-16.617,39.026-24.792,61.965-28.852V32.412    c0-6.318-5.123-11.44-11.439-11.44H43.97c-6.318,0-11.44,5.122-11.44,11.44V168.99C79.797,172.557,124.503,139.668,161.228,106.77    z"
       id="path170" />
  </g>
</svg>
