<?xml version="1.0" encoding="UTF-8" standalone="no"?>
<!DOCTYPE svg PUBLIC "-//W3C//DTD SVG 20010904//EN"
"http://www.w3.org/TR/2001/REC-SVG-20010904/DTD/svg10.dtd">
<!-- Created with Sodipodi ("http://www.sodipodi.com/") -->
<svg
   width="48pt"
   height="48pt"
   viewBox="0 0 256 256"
   overflow="visible"
   enable-background="new 0 0 256 256"
   xml:space="preserve"
   xmlns="http://www.w3.org/2000/svg"
   xmlns:xml="http://www.w3.org/XML/1998/namespace"
   xmlns:a="http://ns.adobe.com/AdobeSVGViewerExtensions/3.0/"
   xmlns:sodipodi="http://sodipodi.sourceforge.net/DTD/sodipodi-0.dtd"
   xmlns:xlink="http://www.w3.org/1999/xlink"
   id="svg153"
   sodipodi:version="0.32pre"
   sodipodi:docname="/home/cschalle/gnome-themes-extras/Nuvola/icons/scalable/stock/filenew.svg"
   sodipodi:docbase="/home/cschalle/gnome-themes-extras/Nuvola/icons/scalable/stock">
  <defs
     id="defs181" />
  <sodipodi:namedview
     id="base" />
  <g
     id="Layer_2"
     stroke="#000000">
    <path
       fill="none"
       stroke="none"
       d="M256,256H0V0h256V256z"
       id="path155" />
  </g>
  <g
     id="Layer_1"
     stroke="#000000">
    <path
       opacity="0.2"
       stroke="none"
       d="M50.867,22.925c-8.937,0-16.207,7.27-16.207,16.207v190.661    c0,8.937,7.27,16.207,16.207,16.207h167.783c8.937,0,16.206-7.271,16.206-16.207V39.132c0-8.937-7.27-16.207-16.206-16.207H50.867    z"
       id="path157" />
    <path
       fill="#003366"
       stroke="none"
       d="M43.97,16.206c-8.937,0-16.207,7.27-16.207,16.206v190.663    c0,8.936,7.27,16.206,16.207,16.206h167.783c8.936,0,16.206-7.271,16.206-16.206V32.412c0-8.936-7.271-16.206-16.206-16.206H43.97    z"
       id="path158" />
    <path
       fill="#3399FF"
       stroke="none"
       d="M32.53,223.074c0,6.317,5.122,11.439,11.44,11.439h167.783    c6.316,0,11.439-5.122,11.439-11.439V32.412c0-6.318-5.123-11.44-11.439-11.44H43.97c-6.318,0-11.44,5.122-11.44,11.44V223.074z"
       id="path159" />
    <linearGradient
       id="XMLID_1_"
       gradientUnits="userSpaceOnUse"
       x1="86.395"
       y1="86.2764"
       x2="312.3286"
       y2="312.2099">
      <stop
         offset="0"
         style="stop-color:#FFFFFF"
         id="stop161" />
      <stop
         offset="1"
         style="stop-color:#99CCFF"
         id="stop162" />
      <a:midPointStop
         offset="0"
         style="stop-color:#FFFFFF"
         id="midPointStop163" />
      <a:midPointStop
         offset="0.5"
         style="stop-color:#FFFFFF"
         id="midPointStop164" />
      <a:midPointStop
         offset="1"
         style="stop-color:#99CCFF"
         id="midPointStop165" />
    </linearGradient>
    <path
       fill="url(#XMLID_1_)"
       stroke="none"
       d="M43.97,25.739c-3.679,0-6.673,2.994-6.673,6.673v190.663    c0,3.679,2.994,6.673,6.673,6.673h167.783c3.679,0,6.673-2.994,6.673-6.673V32.412c0-3.679-2.994-6.673-6.673-6.673H43.97z"
       id="path166" />
    <path
       opacity="0.4"
       fill="#FFFFFF"
       stroke="none"
       d="M161.228,106.77c17.724-16.617,39.026-24.792,61.965-28.852V32.412    c0-6.318-5.123-11.44-11.439-11.44H43.97c-6.318,0-11.44,5.122-11.44,11.44V168.99C79.797,172.557,124.503,139.668,161.228,106.77    z"
       id="path167" />
    <path
       display="none"
       fill="#CC6633"
       stroke="none"
       d="M199.466,44.37L174.48,31.817l-56.102,111.662c0,0,0.524,0.264,1.084,0.545    c10.732-2.683,21.618,2.015,25.293,11.405c0.204,0.518,0.374,1.041,0.525,1.566c0.544,0.273,1.027,0.517,1.027,0.517    l56.104-111.662L199.466,44.37z"
       id="path168" />
    <g
       id="g169">
      <path
         opacity="0.2"
         stroke="none"
         d="M175.822,131.428c0,0,0,16.447,0,27.528c-7.835-7.835-19.465-19.466-19.465-19.466     c-4.65-4.65-12.217-4.65-16.868,0c-2.253,2.253-3.493,5.248-3.493,8.435c0,3.186,1.24,6.181,3.493,8.434     c0,0,11.63,11.63,19.465,19.465c-11.081,0-27.526,0-27.526,0c-6.577,0-11.928,5.35-11.928,11.927s5.351,11.927,11.928,11.927     c0,0,16.447,0,27.527,0c-7.835,7.835-19.465,19.467-19.465,19.467c-2.326,2.325-3.488,5.379-3.488,8.433     c0,3.055,1.162,6.108,3.488,8.434c2.252,2.253,5.248,3.494,8.434,3.494s6.181-1.241,8.434-3.494c0,0,11.63-11.629,19.465-19.464     c0,11.079,0,27.527,0,27.527c0,6.576,5.352,11.927,11.928,11.927s11.928-5.351,11.928-11.927c0,0,0-16.447,0-27.527     c7.835,7.835,19.465,19.464,19.465,19.464c2.252,2.253,5.248,3.494,8.434,3.494s6.181-1.241,8.434-3.494     c2.252-2.252,3.493-5.247,3.493-8.434c0-3.186-1.241-6.181-3.493-8.434c0,0-11.631-11.631-19.466-19.466     c11.081,0,27.528,0,27.528,0c6.577,0,11.928-5.35,11.928-11.927s-5.351-11.927-11.928-11.927c0,0-16.446,0-27.527,0     c7.836-7.835,19.465-19.465,19.465-19.465c2.326-2.325,3.488-5.38,3.488-8.434c0-3.055-1.162-6.109-3.488-8.435     c-4.65-4.65-12.217-4.65-16.867,0c0,0-11.63,11.63-19.465,19.465c0-11.08,0-27.527,0-27.527c0-6.577-5.352-11.928-11.928-11.928     S175.822,124.851,175.822,131.428z"
         id="path170" />
      <path
         fill="#E65C00"
         stroke="none"
         d="M173.822,129.428c0,0,0,16.447,0,27.528c-7.835-7.835-19.465-19.466-19.465-19.466     c-4.65-4.65-12.217-4.65-16.868,0c-2.253,2.253-3.493,5.248-3.493,8.435c0,3.186,1.24,6.181,3.493,8.434     c0,0,11.63,11.63,19.465,19.465c-11.081,0-27.526,0-27.526,0c-6.577,0-11.928,5.35-11.928,11.927s5.351,11.927,11.928,11.927     c0,0,16.447,0,27.527,0c-7.835,7.835-19.465,19.467-19.465,19.467c-2.326,2.325-3.488,5.379-3.488,8.433     c0,3.055,1.162,6.108,3.488,8.434c2.252,2.253,5.248,3.494,8.434,3.494s6.181-1.241,8.434-3.494c0,0,11.63-11.629,19.465-19.464     c0,11.079,0,27.527,0,27.527c0,6.576,5.352,11.927,11.928,11.927s11.928-5.351,11.928-11.927c0,0,0-16.447,0-27.527     c7.835,7.835,19.465,19.464,19.465,19.464c2.252,2.253,5.248,3.494,8.434,3.494s6.181-1.241,8.434-3.494     c2.252-2.252,3.493-5.247,3.493-8.434c0-3.186-1.241-6.181-3.493-8.434c0,0-11.631-11.631-19.466-19.466     c11.081,0,27.528,0,27.528,0c6.577,0,11.928-5.35,11.928-11.927s-5.351-11.927-11.928-11.927c0,0-16.446,0-27.527,0     c7.836-7.835,19.465-19.465,19.465-19.465c2.326-2.325,3.488-5.38,3.488-8.434c0-3.055-1.162-6.109-3.488-8.435     c-4.65-4.65-12.217-4.65-16.867,0c0,0-11.63,11.63-19.465,19.465c0-11.08,0-27.527,0-27.527c0-6.577-5.352-11.928-11.928-11.928     S173.822,122.851,173.822,129.428z"
         id="path171" />
      <linearGradient
         id="XMLID_2_"
         gradientUnits="userSpaceOnUse"
         x1="121.918"
         y1="185.75"
         x2="249.582"
         y2="185.75">
        <stop
           offset="0"
           style="stop-color:#FFFF66"
           id="stop173" />
        <stop
           offset="1"
           style="stop-color:#FFCC66"
           id="stop174" />
        <a:midPointStop
           offset="0"
           style="stop-color:#FFFF66"
           id="midPointStop175" />
        <a:midPointStop
           offset="0.5"
           style="stop-color:#FFFF66"
           id="midPointStop176" />
        <a:midPointStop
           offset="1"
           style="stop-color:#FFCC66"
           id="midPointStop177" />
      </linearGradient>
      <path
         fill="url(#XMLID_2_)"
         stroke="none"
         d="M242.072,178.24h-38.191l27.006-27.006c2.932-2.933,2.932-7.688,0-10.62     c-2.934-2.933-7.688-2.933-10.621,0L193.26,167.62v-38.192c0-4.148-3.362-7.51-7.51-7.51s-7.51,3.362-7.51,7.51v38.193     l-27.006-27.007c-2.934-2.933-7.688-2.933-10.621,0s-2.933,7.688,0,10.62l27.006,27.006h-38.191c-4.148,0-7.51,3.362-7.51,7.51     s3.361,7.51,7.51,7.51h38.193l-27.008,27.007c-2.932,2.933-2.932,7.688,0,10.62c2.934,2.933,7.688,2.933,10.621,0l27.006-27.006     v38.192c0,4.147,3.362,7.509,7.51,7.509s7.51-3.361,7.51-7.509v-38.192l27.006,27.006c2.933,2.933,7.688,2.933,10.62,0     s2.933-7.688,0-10.62l-27.007-27.007h38.193c4.148,0,7.51-3.362,7.51-7.51S246.221,178.24,242.072,178.24z"
         id="path178" />
      <path
         fill="#FFFF99"
         stroke="none"
         d="M180.891,129.428v44.593l-31.531-31.532c-1.895-1.895-4.978-1.895-6.872,0     c-0.917,0.918-1.423,2.139-1.423,3.437s0.506,2.518,1.423,3.436l31.53,31.53h-44.59c-2.68,0-4.859,2.181-4.859,4.859     c0,2.68,2.18,4.859,4.859,4.859h44.592l-31.531,31.531c-1.895,1.895-1.895,4.978,0,6.872c0.918,0.917,2.137,1.423,3.436,1.423     c1.298,0,2.518-0.506,3.436-1.423l31.531-31.53v44.591c0,2.68,2.18,4.858,4.859,4.858s4.859-2.179,4.859-4.858v-44.591     l31.53,31.53c0.918,0.917,2.138,1.423,3.437,1.423c1.298,0,2.518-0.506,3.436-1.423c0.918-0.918,1.424-2.138,1.424-3.437     c0-1.298-0.506-2.518-1.424-3.436l-31.531-31.531h44.592c2.68,0,4.859-2.18,4.859-4.859c0-2.679-2.18-4.859-4.859-4.859h-44.59     l31.529-31.53c1.895-1.895,1.896-4.978,0-6.872c-1.895-1.895-4.977-1.895-6.872,0l-31.53,31.53v-44.591     c0-2.68-2.18-4.86-4.859-4.86S180.891,126.748,180.891,129.428z"
         id="path179" />
    </g>
  </g>
</svg>
