<?xml version="1.0" encoding="UTF-8" standalone="no"?>
<!DOCTYPE svg PUBLIC "-//W3C//DTD SVG 20010904//EN"
"http://www.w3.org/TR/2001/REC-SVG-20010904/DTD/svg10.dtd">
<!-- Created with Sodipodi ("http://www.sodipodi.com/") -->
<svg
   width="48pt"
   height="48pt"
   viewBox="0 0 256.002 256.002"
   overflow="visible"
   enable-background="new 0 0 256.002 256.002"
   xml:space="preserve"
   xmlns="http://www.w3.org/2000/svg"
   xmlns:xml="http://www.w3.org/XML/1998/namespace"
   xmlns:a="http://ns.adobe.com/AdobeSVGViewerExtensions/3.0/"
   xmlns:sodipodi="http://sodipodi.sourceforge.net/DTD/sodipodi-0.dtd"
   xmlns:xlink="http://www.w3.org/1999/xlink"
   id="svg153"
   sodipodi:version="0.32pre"
   sodipodi:docname="/home/cschalle/gnome-themes-extras/Nuvola/icons/scalable/stock/folder_new.svg"
   sodipodi:docbase="/home/cschalle/gnome-themes-extras/Nuvola/icons/scalable/stock">
  <defs
     id="defs209" />
  <sodipodi:namedview
     id="base" />
  <g
     id="Layer_1"
     stroke="#000000">
    <g
       id="Layer_1_1_">
      <path
         opacity="0.2"
         stroke="none"
         d="M236.367,54.474c0,0-143.056,0.025-154.031,0.027c0-0.406-0.001-1.347-0.001-1.347     c0-11.676-9.028-21.175-20.122-21.173l-35.571,0.007c-5.181,0-10.103,2.069-13.855,5.821c-3.283,3.283-5.41,7.669-6.054,12.349     c-0.137,0.993-0.206,1.999-0.206,3.009l0.003,15.02c0,0,0.01,0.308,0.017,0.457c0,0.202,0.023,131.563,0.023,131.563l0.55,1.187     c5.433,11.691,12.351,22.467,20.562,32.022l1.771,2.06l212.864-0.037l-0.031-180.963L236.367,54.474z"
         id="path156" />
      <path
         fill="#003366"
         stroke="none"
         d="M231.84,48.814c0,0-143.056,0.025-154.031,0.027c0-0.407-0.001-1.348-0.001-1.348     c0-11.676-9.029-21.175-20.122-21.173l-35.571,0.007c-5.181,0-10.103,2.068-13.856,5.821c-3.282,3.283-5.41,7.669-6.054,12.349     C2.068,45.491,2,46.497,2,47.508c0,0,0.003,15.019,0.003,15.02c0,0,0.01,0.308,0.017,0.457c0,0.202,0.023,131.563,0.023,131.563     l0.55,1.186c5.433,11.692,12.351,22.468,20.562,32.022l1.771,2.062l212.863-0.038l-0.03-180.964L231.84,48.814z"
         id="path157" />
      <linearGradient
         id="XMLID_1_"
         gradientUnits="userSpaceOnUse"
         x1="-50.7388"
         y1="452.2686"
         x2="-50.7389"
         y2="335.1091"
         gradientTransform="matrix(1 -2.000000e-004 -2.000000e-004 -1 170.7184 551.4479)">
        <stop
           offset="0"
           style="stop-color:#99CCFF"
           id="stop159" />
        <stop
           offset="1"
           style="stop-color:#3399FF"
           id="stop160" />
        <a:midPointStop
           offset="0"
           style="stop-color:#99CCFF"
           id="midPointStop161" />
        <a:midPointStop
           offset="0.5"
           style="stop-color:#99CCFF"
           id="midPointStop162" />
        <a:midPointStop
           offset="1"
           style="stop-color:#3399FF"
           id="midPointStop163" />
      </linearGradient>
      <path
         fill="url(#XMLID_1_)"
         stroke="none"
         d="M231.842,54.731L71.893,54.76l-0.001-7.265     c-0.002-8.428-6.361-15.258-14.205-15.257l-35.569,0.006c-7.843,0.002-14.201,6.834-14.199,15.262L7.92,62.525     c0,0.12,0.015,0.237,0.017,0.355l0.024,130.357c5.141,11.064,11.777,21.457,19.682,30.658l204.228-0.037L231.842,54.731z"
         id="path164" />
      <linearGradient
         id="XMLID_2_"
         gradientUnits="userSpaceOnUse"
         x1="-130.7134"
         y1="489.5566"
         x2="-130.7134"
         y2="508.4945"
         gradientTransform="matrix(1 -2.000000e-004 -2.000000e-004 -1 170.7184 551.4479)">
        <stop
           offset="0"
           style="stop-color:#3399FF"
           id="stop166" />
        <stop
           offset="0.0546"
           style="stop-color:#3B9DFF"
           id="stop167" />
        <stop
           offset="0.3437"
           style="stop-color:#64B1FF"
           id="stop168" />
        <stop
           offset="0.6075"
           style="stop-color:#81C0FF"
           id="stop169" />
        <stop
           offset="0.835"
           style="stop-color:#93C9FF"
           id="stop170" />
        <stop
           offset="1"
           style="stop-color:#99CCFF"
           id="stop171" />
        <a:midPointStop
           offset="0"
           style="stop-color:#3399FF"
           id="midPointStop172" />
        <a:midPointStop
           offset="0.5"
           style="stop-color:#3399FF"
           id="midPointStop173" />
        <a:midPointStop
           offset="0.0546"
           style="stop-color:#3B9DFF"
           id="midPointStop174" />
        <a:midPointStop
           offset="0.5"
           style="stop-color:#3B9DFF"
           id="midPointStop175" />
        <a:midPointStop
           offset="0.3437"
           style="stop-color:#64B1FF"
           id="midPointStop176" />
        <a:midPointStop
           offset="0.5"
           style="stop-color:#64B1FF"
           id="midPointStop177" />
        <a:midPointStop
           offset="0.6075"
           style="stop-color:#81C0FF"
           id="midPointStop178" />
        <a:midPointStop
           offset="0.5"
           style="stop-color:#81C0FF"
           id="midPointStop179" />
        <a:midPointStop
           offset="0.835"
           style="stop-color:#93C9FF"
           id="midPointStop180" />
        <a:midPointStop
           offset="0.5"
           style="stop-color:#93C9FF"
           id="midPointStop181" />
        <a:midPointStop
           offset="1"
           style="stop-color:#99CCFF"
           id="midPointStop182" />
      </linearGradient>
      <path
         fill="url(#XMLID_2_)"
         stroke="none"
         d="M22.118,35.796c-5.873,0.001-10.65,5.255-10.649,11.71l0.002,15.019     c0.001,6.457,4.782,11.708,10.654,11.707l35.569-0.007c5.873-0.001,10.65-5.255,10.649-11.711L68.34,47.496     c-0.001-6.455-4.781-11.708-10.654-11.707L22.118,35.796z"
         id="path183" />
      <linearGradient
         id="XMLID_3_"
         gradientUnits="userSpaceOnUse"
         x1="-106.7334"
         y1="497.1162"
         x2="-8.33"
         y2="368.8406"
         gradientTransform="matrix(1 -2.000000e-004 -2.000000e-004 -1 170.7184 551.4479)">
        <stop
           offset="0"
           style="stop-color:#FFFFFF"
           id="stop185" />
        <stop
           offset="1"
           style="stop-color:#99CCFF"
           id="stop186" />
        <a:midPointStop
           offset="0"
           style="stop-color:#FFFFFF"
           id="midPointStop187" />
        <a:midPointStop
           offset="0.5"
           style="stop-color:#FFFFFF"
           id="midPointStop188" />
        <a:midPointStop
           offset="1"
           style="stop-color:#99CCFF"
           id="midPointStop189" />
      </linearGradient>
      <path
         opacity="0.8"
         fill="url(#XMLID_3_)"
         stroke="none"
         d="M11.488,58.321c0,5.086,0.016,96.062,0.024,136.866     c0.98,1.756,2,3.496,3.062,5.207c3.701-24.418,17.197-48.236,39.247-59.328c34.318-18.257,72.19-10.281,110.063-15.99     c31.17-5.312,55.932-29.786,64.41-58.572c-0.002-4.506-0.002-7.422-0.002-8.221C221.524,58.284,18.254,58.32,11.488,58.321z"
         id="path190" />
      <path
         fill="#FFFFFF"
         stroke="none"
         d="M57.687,34.606l-35.569,0.007c-5.873,0.001-10.65,5.254-10.649,11.71l0.001,4.735     c-0.001-6.457,4.777-11.711,10.649-11.712l35.568-0.006c5.874-0.001,10.654,5.251,10.654,11.707v-4.735     C68.339,39.855,63.559,34.604,57.687,34.606z"
         id="path191" />
      <path
         fill="#FFFFFF"
         stroke="none"
         d="M10.734,57.17l0.025,136.075c1.111,2.046,2.282,4.056,3.503,6.04L14.239,73.979     c-0.001-7.438,6.207-13.469,13.867-13.471l198.342-0.036c0.746,0,1.479,0.074,2.193,0.185v-3.526L10.734,57.17z"
         id="path192" />
      <path
         fill="#3399FF"
         stroke="#0066CC"
         stroke-width="5"
         stroke-linejoin="round"
         d="M185.092,222.271l45.578-0.008l-0.007-48.779     L185.092,222.271z"
         id="path193" />
      <path
         fill="#FFFFFF"
         stroke="none"
         d="M227.515,186.452c0-1.86,0-3.61,0-5.169c-8.271,8.92-27.826,30.019-35.445,38.233     c1.437,0,3.063,0,4.793,0C204.718,211.042,219.218,195.403,227.515,186.452z"
         id="path194" />
      <g
         id="g195">
        <path
           opacity="0.2"
           stroke="none"
           d="M175.821,131.428c0,0,0,16.447,0,27.528c-7.834-7.835-19.465-19.466-19.465-19.466      c-4.649-4.65-12.217-4.65-16.867,0c-2.254,2.253-3.493,5.248-3.493,8.435c0,3.186,1.239,6.182,3.493,8.434      c0,0,11.63,11.631,19.465,19.466c-11.081,0-27.525,0-27.525,0c-6.578,0-11.929,5.35-11.929,11.927s5.351,11.927,11.929,11.927      c0,0,16.446,0,27.526,0c-7.835,7.835-19.465,19.468-19.465,19.468c-2.326,2.324-3.488,5.379-3.488,8.433      c0,3.055,1.162,6.108,3.488,8.435c2.252,2.252,5.247,3.493,8.434,3.493s6.181-1.241,8.435-3.493c0,0,11.63-11.63,19.465-19.465      c0,11.079,0,27.527,0,27.527c0,6.576,5.352,11.927,11.928,11.927s11.928-5.351,11.928-11.927c0,0,0-16.447,0-27.527      c7.836,7.835,19.465,19.465,19.465,19.465c2.252,2.252,5.248,3.493,8.435,3.493s6.181-1.241,8.435-3.493      c2.252-2.253,3.492-5.248,3.492-8.435s-1.24-6.181-3.492-8.435c0,0-11.632-11.631-19.467-19.466c11.081,0,27.528,0,27.528,0      c6.577,0,11.928-5.35,11.928-11.927s-5.351-11.927-11.928-11.927c0,0-16.446,0-27.527,0      c7.836-7.835,19.466-19.466,19.466-19.466c2.325-2.324,3.487-5.379,3.487-8.434s-1.162-6.109-3.487-8.435      c-4.65-4.65-12.218-4.65-16.867,0c0,0-11.631,11.63-19.465,19.465c0-11.08,0-27.527,0-27.527      c0-6.577-5.353-11.928-11.929-11.928C181.177,119.5,175.821,124.851,175.821,131.428z"
           id="path196" />
        <path
           fill="#E65C00"
           stroke="none"
           d="M172.821,128.428c0,0,0,16.447,0,27.528c-7.834-7.835-19.465-19.466-19.465-19.466      c-4.649-4.65-12.217-4.65-16.867,0c-2.254,2.253-3.493,5.248-3.493,8.435c0,3.186,1.239,6.182,3.493,8.434      c0,0,11.63,11.631,19.465,19.466c-11.081,0-27.526,0-27.526,0c-6.577,0-11.928,5.35-11.928,11.927s5.351,11.927,11.928,11.927      c0,0,16.447,0,27.527,0c-7.835,7.835-19.465,19.468-19.465,19.468c-2.326,2.324-3.488,5.379-3.488,8.433      c0,3.055,1.162,6.108,3.488,8.435c2.252,2.252,5.247,3.493,8.434,3.493s6.181-1.241,8.435-3.493c0,0,11.63-11.63,19.465-19.465      c0,11.079,0,27.527,0,27.527c0,6.576,5.352,11.927,11.928,11.927s11.928-5.351,11.928-11.927c0,0,0-16.447,0-27.527      c7.836,7.835,19.465,19.465,19.465,19.465c2.252,2.252,5.248,3.493,8.435,3.493s6.181-1.241,8.435-3.493      c2.252-2.253,3.492-5.248,3.492-8.435s-1.24-6.181-3.492-8.435c0,0-11.632-11.631-19.467-19.466c11.081,0,27.528,0,27.528,0      c6.577,0,11.928-5.35,11.928-11.927s-5.351-11.927-11.928-11.927c0,0-16.446,0-27.527,0      c7.836-7.835,19.466-19.466,19.466-19.466c2.325-2.324,3.487-5.379,3.487-8.434s-1.162-6.109-3.487-8.435      c-4.65-4.65-12.218-4.65-16.867,0c0,0-11.631,11.63-19.465,19.465c0-11.08,0-27.527,0-27.527      c0-6.577-5.353-11.928-11.929-11.928C178.177,116.5,172.821,121.851,172.821,128.428z"
           id="path197" />
        <linearGradient
           id="XMLID_4_"
           gradientUnits="userSpaceOnUse"
           x1="-47.5811"
           y1="362.752"
           x2="80.083"
           y2="362.752"
           gradientTransform="matrix(1 0 0 -1 168.499 547.502)">
          <stop
             offset="0"
             style="stop-color:#FFFF66"
             id="stop199" />
          <stop
             offset="1"
             style="stop-color:#FFCC66"
             id="stop200" />
          <a:midPointStop
             offset="0"
             style="stop-color:#FFFF66"
             id="midPointStop201" />
          <a:midPointStop
             offset="0.5"
             style="stop-color:#FFFF66"
             id="midPointStop202" />
          <a:midPointStop
             offset="1"
             style="stop-color:#FFCC66"
             id="midPointStop203" />
        </linearGradient>
        <path
           fill="url(#XMLID_4_)"
           stroke="none"
           d="M241.071,177.24h-38.19l27.007-27.007c2.932-2.933,2.932-7.688,0-10.619      c-2.935-2.934-7.688-2.934-10.621,0L192.26,166.62v-38.192c0-4.148-3.362-7.51-7.51-7.51s-7.51,3.362-7.51,7.51v38.193      l-27.007-27.007c-2.934-2.934-7.688-2.934-10.621,0c-2.932,2.933-2.932,7.688,0,10.619l27.007,27.007h-38.191      c-4.148,0-7.51,3.362-7.51,7.51s3.362,7.51,7.51,7.51h38.193l-27.009,27.007c-2.932,2.934-2.932,7.688,0,10.62      c2.935,2.933,7.688,2.933,10.621,0l27.007-27.006v38.192c0,4.146,3.362,7.509,7.51,7.509s7.51-3.361,7.51-7.509v-38.192      l27.007,27.006c2.933,2.933,7.688,2.933,10.619,0s2.934-7.688,0-10.62l-27.007-27.007h38.192c4.148,0,7.511-3.362,7.511-7.51      S245.222,177.24,241.071,177.24z"
           id="path204" />
        <path
           fill="#FFFF99"
           stroke="none"
           d="M179.892,128.428v44.593l-31.531-31.531c-1.896-1.896-4.979-1.896-6.873,0      c-0.916,0.918-1.422,2.139-1.422,3.437s0.506,2.519,1.422,3.437l31.531,31.529h-44.59c-2.68,0-4.86,2.182-4.86,4.859      c0,2.68,2.18,4.859,4.86,4.859h44.592l-31.531,31.531c-1.895,1.895-1.895,4.978,0,6.871c0.918,0.918,2.137,1.424,3.436,1.424      s2.518-0.506,3.436-1.424l31.531-31.529v44.591c0,2.68,2.181,4.858,4.859,4.858c2.68,0,4.859-2.18,4.859-4.858v-44.591      l31.529,31.529c0.918,0.918,2.139,1.424,3.438,1.424c1.298,0,2.518-0.506,3.436-1.424s1.424-2.138,1.424-3.437      c0-1.298-0.506-2.519-1.424-3.437l-31.531-31.531h44.593c2.68,0,4.858-2.18,4.858-4.858s-2.18-4.858-4.858-4.858h-44.591      l31.529-31.531c1.896-1.895,1.896-4.978,0-6.871c-1.895-1.896-4.977-1.896-6.871,0l-31.531,31.529v-44.591      c0-2.68-2.18-4.86-4.858-4.86S179.892,125.748,179.892,128.428z"
           id="path205" />
      </g>
    </g>
    <g
       id="Layer_2">
      <path
         fill="none"
         stroke="none"
         d="M256,256H0V0h256V256z"
         id="path207" />
    </g>
  </g>
</svg>
