<?xml version="1.0" encoding="UTF-8" standalone="no"?>
<!DOCTYPE svg PUBLIC "-//W3C//DTD SVG 20010904//EN"
"http://www.w3.org/TR/2001/REC-SVG-20010904/DTD/svg10.dtd">
<!-- Created with Sodipodi ("http://www.sodipodi.com/") -->
<svg
   width="48pt"
   height="48pt"
   viewBox="0 0 256 256"
   overflow="visible"
   enable-background="new 0 0 256 256"
   xml:space="preserve"
   xmlns="http://www.w3.org/2000/svg"
   xmlns:xml="http://www.w3.org/XML/1998/namespace"
   xmlns:a="http://ns.adobe.com/AdobeSVGViewerExtensions/3.0/"
   xmlns:sodipodi="http://sodipodi.sourceforge.net/DTD/sodipodi-0.dtd"
   xmlns:xlink="http://www.w3.org/1999/xlink"
   id="svg153"
   sodipodi:version="0.32pre"
   sodipodi:docname="/home/cschalle/gnome-themes-extras/Nuvola/icons/scalable/stock/home.svg"
   sodipodi:docbase="/home/cschalle/gnome-themes-extras/Nuvola/icons/scalable/stock">
  <defs
     id="defs188" />
  <sodipodi:namedview
     id="base" />
  <g
     id="Layer_1"
     stroke="#000000">
    <g
       id="Layer_1_1_">
      <path
         fill="none"
         stroke="none"
         d="M256,256H0V0h256V256z"
         id="path156" />
    </g>
    <g
       id="g157">
      <path
         opacity="0.2"
         stroke="none"
         d="M8.285,130.645C8.285,198.111,63.174,253,130.643,253C198.109,253,253,198.111,253,130.645     c0-67.47-54.891-122.358-122.357-122.358C63.174,8.286,8.285,63.175,8.285,130.645z"
         id="path158" />
      <path
         fill="#003366"
         stroke="none"
         d="M5.603,125.798c0,67.468,54.889,122.356,122.357,122.356s122.356-54.889,122.356-122.356     c0-67.469-54.89-122.358-122.356-122.358C60.492,3.44,5.603,58.33,5.603,125.798z"
         id="path159" />
      <path
         fill="#003366"
         stroke="none"
         d="M127.96,5.44C61.595,5.44,7.603,59.433,7.603,125.798     c0,66.364,53.992,120.356,120.357,120.356c66.365,0,120.356-53.992,120.356-120.356C248.316,59.433,194.325,5.44,127.96,5.44z"
         id="path160" />
      <radialGradient
         id="XMLID_1_"
         cx="-118.7607"
         cy="492.4902"
         r="259.5079"
         fx="-118.7607"
         fy="492.4902"
         gradientTransform="matrix(1 0 0 -1 168.5 547.5)"
         gradientUnits="userSpaceOnUse">
        <stop
           offset="0.0056"
           style="stop-color:#99CCFF"
           id="stop162" />
        <stop
           offset="0.5843"
           style="stop-color:#3399FF"
           id="stop163" />
        <stop
           offset="1"
           style="stop-color:#0066CC"
           id="stop164" />
        <a:midPointStop
           offset="0.0056"
           style="stop-color:#99CCFF"
           id="midPointStop165" />
        <a:midPointStop
           offset="0.5"
           style="stop-color:#99CCFF"
           id="midPointStop166" />
        <a:midPointStop
           offset="0.5843"
           style="stop-color:#3399FF"
           id="midPointStop167" />
        <a:midPointStop
           offset="0.5"
           style="stop-color:#3399FF"
           id="midPointStop168" />
        <a:midPointStop
           offset="1"
           style="stop-color:#0066CC"
           id="midPointStop169" />
      </radialGradient>
      <path
         fill="url(#XMLID_1_)"
         stroke="none"
         d="M13.603,125.798c0,63.157,51.199,114.356,114.357,114.356     s114.356-51.199,114.356-114.356c0-63.158-51.198-114.358-114.356-114.358C64.802,11.44,13.603,62.64,13.603,125.798z"
         id="path170" />
      <path
         opacity="0.5"
         fill="#FFFFFF"
         stroke="none"
         d="M16.603,129.813c0-63.157,51.199-114.357,114.357-114.357     c36.628,0,69.229,17.222,90.16,44.007c-20.735-29.068-54.733-48.022-93.16-48.022c-63.158,0-114.357,51.2-114.357,114.358     c0,26.53,9.037,50.946,24.196,70.349C24.454,177.439,16.603,154.543,16.603,129.813z"
         id="path171" />
    </g>
    <path
       fill="#0066CC"
       stroke="none"
       d="M122.951,59.16c-27.063,17.913-48.82,35.736-68.016,51.46    c0.008-0.007,0.113-0.09,0.121-0.097l-5.561,4.503c-2.047,1.659-3.221,4.121-3.221,6.756l0.605,3.187    c1.402,3.551,4.898,5.754,8.702,5.485c0,0,4.313-0.293,7.158-0.486c4.236,15.89,8.492,34.368,9.39,53.281    c0.296,6.031,5.177,10.75,11.112,10.75h20.991c2.305,0,4.557-0.938,6.179-2.578c1.622-1.639,2.538-3.899,2.514-6.206    c-0.103-9.906-0.461-19.98-1.096-30.802c0.001,0.013,0.001,0.015,0.001,0.01c0-0.021-0.005-0.19-0.009-0.331    c0.003-0.965,0.38-1.902,1.068-2.64c0.87-0.935,2.177-1.476,3.586-1.481h22.583c1.342,0.008,2.676,0.563,3.531,1.479    c0.717,0.769,1.064,1.639,1.068,2.657c-0.006,0.158-0.012,0.354-0.016,0.418c-0.629,10.775-0.985,20.816-1.091,30.688    c0,0.027,0,0.058,0,0.084c0,2.279,0.914,4.507,2.515,6.123c1.621,1.64,3.873,2.578,6.181,2.578h20.991    c5.938,0,10.816-4.722,11.111-10.747c0.898-18.922,5.154-37.4,9.389-53.284c2.832,0.191,7.176,0.486,7.176,0.486    c3.79,0.269,7.285-1.937,8.686-5.483c0.002-0.006,0.605-3.188,0.605-3.188c0-2.634-1.174-5.095-3.219-6.755l-5.447-4.413    c0,0-11.354-9.234-16.025-13.036c0-2.491,0-17.319,0-17.319l-0.479-2.846c-1.671-4.834-7.486-8.086-14.472-8.086h-1.168    c-5.646,0-10.586,2.263-13.123,5.718c-7.603-5.569-15.082-10.833-22.723-15.888C129.633,57.23,125.866,57.23,122.951,59.16z"
       id="path172" />
    <linearGradient
       id="XMLID_2_"
       gradientUnits="userSpaceOnUse"
       x1="-59.3315"
       y1="448.3486"
       x2="44.7424"
       y2="271.08"
       gradientTransform="matrix(1 0 0 -1 168.5 547.5)">
      <stop
         offset="0.0056"
         style="stop-color:#FFFFFF"
         id="stop174" />
      <stop
         offset="1"
         style="stop-color:#CCCCCC"
         id="stop175" />
      <a:midPointStop
         offset="0.0056"
         style="stop-color:#FFFFFF"
         id="midPointStop176" />
      <a:midPointStop
         offset="0.5"
         style="stop-color:#FFFFFF"
         id="midPointStop177" />
      <a:midPointStop
         offset="1"
         style="stop-color:#CCCCCC"
         id="midPointStop178" />
    </linearGradient>
    <path
       fill="url(#XMLID_2_)"
       stroke="none"
       d="M202.563,119.249l-5.444-4.412c0,0-15.938-12.964-18.026-14.663    c-0.007-0.522-0.012-1.077-0.012-1.077V80.261c0-0.363-0.061-0.723-0.18-1.065c-0.873-2.527-4.889-4.433-9.338-4.433h-1.17    c-4.51,0-8.533,1.97-9.361,4.582c-0.057,0.177-0.098,0.358-0.122,0.541c0,0-0.276,2.003-0.543,3.935    c-1.476-0.985-3.001-2.006-3.037-2.029c-8.665-6.435-17.101-12.358-25.779-18.102c-1.09-0.722-2.507-0.722-3.598,0    c-26.828,17.756-48.474,35.488-67.573,51.133c-0.012,0.009-5.463,4.425-5.463,4.425c-0.78,0.632-1.208,1.571-1.208,2.534    c0,0.401,0.074,0.806,0.227,1.196c0.522,1.323,1.843,2.155,3.263,2.055l9.87-0.669c0,0,0.92-0.056,1.769-0.109    c0.222,0.821,0.463,1.711,0.463,1.711c4.527,16.72,9.286,36.569,10.257,57.026c0.154,3.128,2.651,5.574,5.685,5.574h20.991    c0.871,0,1.705-0.349,2.317-0.967c0.612-0.619,0.952-1.457,0.943-2.328c-0.102-9.814-0.457-19.806-1.087-30.539    c-0.001-0.019-0.021-0.627-0.021-0.627c0-2.352,0.898-4.608,2.53-6.358c1.885-2.022,4.628-3.192,7.526-3.21h22.616    c2.879,0.018,5.623,1.188,7.508,3.209c1.653,1.773,2.528,3.979,2.528,6.376l-0.021,0.631c-0.629,10.722-0.983,20.702-1.088,30.521    c-0.008,0.869,0.33,1.707,0.943,2.326c0.611,0.619,1.446,0.967,2.317,0.967h20.991c3.035,0,5.531-2.449,5.685-5.578    c0.974-20.459,5.729-40.307,10.257-57.021c0,0,0.241-0.89,0.465-1.711c0.848,0.053,1.768,0.109,1.768,0.109l9.871,0.669    c1.419,0.1,2.74-0.732,3.262-2.056c0.152-0.389,0.229-0.794,0.229-1.195C203.771,120.82,203.343,119.881,202.563,119.249z"
       id="path179" />
    <linearGradient
       id="XMLID_3_"
       gradientUnits="userSpaceOnUse"
       x1="-41.8311"
       y1="533.4521"
       x2="-41.8311"
       y2="447.5067"
       gradientTransform="matrix(1 0 0 -1 168.5 547.5)">
      <stop
         offset="0.0056"
         style="stop-color:#FFFFFF"
         id="stop181" />
      <stop
         offset="1"
         style="stop-color:#99CCFF"
         id="stop182" />
      <a:midPointStop
         offset="0.0056"
         style="stop-color:#FFFFFF"
         id="midPointStop183" />
      <a:midPointStop
         offset="0.5"
         style="stop-color:#FFFFFF"
         id="midPointStop184" />
      <a:midPointStop
         offset="1"
         style="stop-color:#99CCFF"
         id="midPointStop185" />
    </linearGradient>
    <path
       fill="url(#XMLID_3_)"
       stroke="none"
       d="M132.548,59.159c7.642,5.056,15.12,10.319,22.724,15.888    c2.537-3.455,7.476-5.718,13.121-5.718h1.17c6.983,0,12.801,3.252,14.471,8.086l0.48,2.846c0,0,0,0.419,0,1.119    c13.185-3.493,24.73-8.053,33.998-13.413c-18.02-31.361-51.859-52.527-90.552-52.527c-40.628,0-75.903,23.339-93.134,57.313    c13.718,6.242,30.898,11.012,50.184,13.723c11.494-8.899,24.011-18.094,37.942-27.315C125.866,57.23,129.633,57.23,132.548,59.159    z"
       id="path186" />
  </g>
</svg>
