<?xml version="1.0" encoding="UTF-8" standalone="no"?>
<!DOCTYPE svg PUBLIC "-//W3C//DTD SVG 20010904//EN"
"http://www.w3.org/TR/2001/REC-SVG-20010904/DTD/svg10.dtd">
<!-- Created with Sodipodi ("http://www.sodipodi.com/") -->
<svg
   width="48pt"
   height="48pt"
   viewBox="0 0 256 256"
   overflow="visible"
   enable-background="new 0 0 256 256"
   xml:space="preserve"
   id="svg153"
   sodipodi:version="0.32pre"
   sodipodi:docname="/home/cschalle/gnome-themes-extras/Nuvola/icons/scalable/stock/up.svg"
   sodipodi:docbase="/home/cschalle/gnome-themes-extras/Nuvola/icons/scalable/stock/"
   xmlns="http://www.w3.org/2000/svg"
   xmlns:sodipodi="http://sodipodi.sourceforge.net/DTD/sodipodi-0.dtd"
   xmlns:xml="http://www.w3.org/XML/1998/namespace"
   xmlns:a="http://ns.adobe.com/AdobeSVGViewerExtensions/3.0/"
   xmlns:xlink="http://www.w3.org/1999/xlink">
  <defs
     id="defs210">
    <linearGradient
       id="XMLID_4_"
       gradientUnits="userSpaceOnUse"
       x1="134.0703"
       y1="106.9966"
       x2="134.0703"
       y2="226.0023">
      <stop
         offset="0.0056"
         style="stop-color:#FFFFFF"
         id="stop196" />
      <stop
         offset="1"
         style="stop-color:#CCCCCC"
         id="stop197" />
      <a:midPointStop
         offset="0.0056"
         style="stop-color:#FFFFFF"
         id="midPointStop198" />
      <a:midPointStop
         offset="0.5"
         style="stop-color:#FFFFFF"
         id="midPointStop199" />
      <a:midPointStop
         offset="1"
         style="stop-color:#CCCCCC"
         id="midPointStop200" />
    </linearGradient>
    <linearGradient
       id="XMLID_5_"
       gradientUnits="userSpaceOnUse"
       x1="126.6685"
       y1="14.0527"
       x2="126.6685"
       y2="99.6815">
      <stop
         offset="0.0056"
         style="stop-color:#FFFFFF"
         id="stop203" />
      <stop
         offset="1"
         style="stop-color:#99CCFF"
         id="stop204" />
      <a:midPointStop
         offset="0.0056"
         style="stop-color:#FFFFFF"
         id="midPointStop205" />
      <a:midPointStop
         offset="0.5"
         style="stop-color:#FFFFFF"
         id="midPointStop206" />
      <a:midPointStop
         offset="1"
         style="stop-color:#99CCFF"
         id="midPointStop207" />
    </linearGradient>
  </defs>
  <sodipodi:namedview
     id="base" />
  <g
     id="Layer_1"
     stroke="#000000">
    <path
       fill="none"
       stroke="none"
       d="M256,256H0V0h256V256z"
       id="path155" />
  </g>
  <g
     id="g157"
     style="font-size:12;stroke:#000000;">
    <path
       opacity="0.2"
       stroke="none"
       d="M8.285,130.645C8.285,198.111,63.174,253,130.643,253C198.11,253,253,198.111,253,130.645     C253,63.175,198.11,8.286,130.643,8.286C63.174,8.286,8.285,63.175,8.285,130.645z"
       id="path158" />
    <path
       fill="#003366"
       stroke="none"
       d="M5.603,125.798c0,67.467,54.889,122.356,122.357,122.356     c67.468,0,122.357-54.889,122.357-122.356c0-67.469-54.89-122.358-122.357-122.358C60.492,3.44,5.603,58.33,5.603,125.798z"
       id="path159" />
    <path
       fill="#003366"
       stroke="none"
       d="M127.96,5.44C61.595,5.44,7.603,59.433,7.603,125.798     c0,66.364,53.992,120.356,120.357,120.356s120.357-53.992,120.357-120.356C248.317,59.433,194.325,5.44,127.96,5.44z"
       id="path160" />
    <radialGradient
       id="XMLID_1_"
       cx="49.7393"
       cy="55.0098"
       r="259.5079"
       fx="49.7393"
       fy="55.0098"
       gradientUnits="userSpaceOnUse">
      <stop
         offset="0.0056"
         style="stop-color:#99CCFF"
         id="stop162" />
      <stop
         offset="0.5843"
         style="stop-color:#3399FF"
         id="stop163" />
      <stop
         offset="1"
         style="stop-color:#0066CC"
         id="stop164" />
      <a:midPointStop
         offset="0.0056"
         style="stop-color:#99CCFF"
         id="midPointStop165" />
      <a:midPointStop
         offset="0.5"
         style="stop-color:#99CCFF"
         id="midPointStop166" />
      <a:midPointStop
         offset="0.5843"
         style="stop-color:#3399FF"
         id="midPointStop167" />
      <a:midPointStop
         offset="0.5"
         style="stop-color:#3399FF"
         id="midPointStop168" />
      <a:midPointStop
         offset="1"
         style="stop-color:#0066CC"
         id="midPointStop169" />
    </radialGradient>
    <path
       fill="url(#XMLID_1_)"
       stroke="none"
       d="M13.603,125.798c0,63.157,51.199,114.356,114.357,114.356     s114.357-51.199,114.357-114.356c0-63.158-51.199-114.358-114.357-114.358S13.603,62.64,13.603,125.798z"
       id="path170" />
    <path
       opacity="0.2"
       fill="#FFFFFF"
       stroke="none"
       d="M16.603,129.813c0-63.158,51.199-114.358,114.357-114.358     c36.628,0,69.23,17.222,90.16,44.007c-20.735-29.068-54.733-48.022-93.16-48.022c-63.158,0-114.357,51.2-114.357,114.358     c0,26.53,9.037,50.946,24.196,70.348C24.454,177.439,16.603,154.543,16.603,129.813z"
       id="path171" />
  </g>
  <path
     fill="#0066CC"
     stroke="none"
     d="M74.876,162.314c4.437,1.539,9.678,0.156,13.354-3.52c0,0,23.371-23.37,28.988-28.987    c6.234,6.234,54.38,54.379,54.38,54.379c5.946,5.947,16.337,5.236,23.16-1.587c6.823-6.824,7.535-17.215,1.589-23.161    c0,0-48.146-48.146-54.38-54.38c5.617-5.617,28.987-28.987,28.987-28.987c3.677-3.677,5.059-8.919,3.519-13.356    c-1.689-4.885-6.434-7.717-11.804-7.04L89.22,64.954c-6.129,0.774-11.335,5.979-12.107,12.109l-9.276,73.442    C67.156,155.872,69.984,160.618,74.876,162.314z"
     id="path194"
     style="font-size:12;fill:#0066cc;" />
  <path
     fill="url(#XMLID_4_)"
     stroke="none"
     d="M82.074,77.688l-9.277,73.444c-0.381,3.007,1.08,5.543,3.718,6.458    c2.639,0.915,5.85,0,8.181-2.332l32.523-32.522l57.915,57.914c3.998,3.999,11.215,3.287,16.089-1.587    c4.875-4.874,5.587-12.093,1.589-16.09l-57.914-57.915l32.523-32.522c2.33-2.332,3.245-5.543,2.329-8.182    c-0.911-2.635-3.444-4.096-6.454-3.717l-73.448,9.278C85.977,70.403,82.561,73.817,82.074,77.688z"
     id="path201"
     style="font-size:12;fill:url(#XMLID_4_);" />
  <path
     fill="url(#XMLID_5_)"
     stroke="none"
     d="M89.22,64.954l73.449-9.278c5.37-0.677,10.114,2.154,11.804,7.04    c1.54,4.437,0.158,9.679-3.519,13.356c0,0-4.564,4.564-10.143,10.142c23.186-3.438,43.218-9.871,57.7-18.246    c-18.02-31.361-51.86-52.527-90.552-52.527c-40.628,0-75.903,23.339-93.134,57.313c11.565,5.262,25.606,9.465,41.28,12.284    l1.007-7.973C77.885,70.934,83.091,65.728,89.22,64.954z"
     id="path208"
     style="font-size:12;fill:url(#XMLID_5_);" />
</svg>
